<svg xmlns="http://www.w3.org/2000/svg" viewBox="0 0 64 64" fill="none">
  <defs>
    <linearGradient id="g" x1="0" y1="0" x2="1" y2="1">
      <stop offset="0%" stop-color="#34d399"/>
      <stop offset="50%" stop-color="#14b8a6"/>
      <stop offset="100%" stop-color="#06b6d4"/>
    </linearGradient>
  </defs>
  <rect x="4" y="10" width="56" height="44" rx="10" stroke="url(#g)" stroke-width="4"/>
  <path d="M10 40c4 0 4 4 8 4s4-4 8-4 4 4 8 4 4-4 8-4 4 4 8 4" stroke="url(#g)" stroke-width="3" stroke-linecap="round"/>
  <path d="M10 32c4 0 4 4 8 4s4-4 8-4 4 4 8 4 4-4 8-4 4 4 8 4" stroke="url(#g)" stroke-width="3" stroke-linecap="round" opacity="0.7"/>
  <circle cx="20" cy="24" r="4" fill="url(#g)"/>
</svg>

